<svg width="33" height="12" viewBox="0 0 33 12" fill="none" xmlns="http://www.w3.org/2000/svg">
<path d="M32.378 4.90909H30.7317C30.6966 4.90909 30.6659 4.92273 30.6324 4.92873C30.1341 2.12727 27.72 0 24.7346 0C21.802 0 19.3555 2.05145 18.7848 4.78036C18.0499 4.15036 17.2871 3.82418 16.5057 3.81818C15.6913 3.81818 14.9093 4.14764 14.1481 4.79182C13.5971 2.05691 11.2083 0 8.27122 0C5.10037 0 2.4997 2.4 2.22256 5.46C2.21323 5.45945 0.548781 5.45455 0.548781 5.45455C0.245305 5.45455 0 5.69891 0 6C0 6.30109 0.245305 6.54545 0.548781 6.54545H2.19512C2.4997 9.6 5.10037 12 8.27122 12C11.5524 12 14.1426 9.43036 14.2573 6.21927C15.0207 5.35309 15.7692 4.90909 16.4843 4.90909C17.2048 4.91455 17.9352 5.35691 18.6695 6.21545C18.7853 9.42873 21.4529 12 24.7346 12C28.091 12 30.7317 9.31364 30.7317 6H32.378C32.6815 6 32.9268 5.75564 32.9268 5.45455C32.9268 5.15345 32.6815 4.90909 32.378 4.90909Z" fill="#FF0000"/>
</svg>
