<svg width="62" height="54" viewBox="0 0 62 54" fill="none" xmlns="http://www.w3.org/2000/svg">
<path opacity="0.2" d="M17.7096 28.5146C20.2424 29.4011 22.2054 30.8575 23.5985 32.8838C24.9915 34.9101 25.6881 37.3796 25.6881 40.2924C25.6881 44.0917 24.485 47.1944 22.0788 49.6006C19.6725 52.0068 16.6964 53.21 13.1504 53.21C9.47781 53.21 6.43838 52.0068 4.03217 49.6006C1.62596 47.0678 0.422852 43.965 0.422852 40.2924C0.422852 38.5194 0.612816 36.7464 0.992744 34.9734C1.49932 33.0738 2.44914 30.3509 3.84221 26.8049L12.7705 0.209961H24.7383L17.7096 28.5146ZM53.6128 28.5146C56.1457 29.4011 58.1086 30.8575 59.5017 32.8838C60.8948 34.9101 61.5913 37.3796 61.5913 40.2924C61.5913 44.0917 60.3882 47.1944 57.982 49.6006C55.5758 52.0068 52.5997 53.21 49.0537 53.21C45.381 53.21 42.3416 52.0068 39.9354 49.6006C37.5292 47.0678 36.3261 43.965 36.3261 40.2924C36.3261 38.5194 36.516 36.7464 36.896 34.9734C37.4025 33.0738 38.3524 30.3509 39.7454 26.8049L48.6737 0.209961H60.6415L53.6128 28.5146Z" fill="black"/>
</svg>
