<svg width="11" height="20" viewBox="0 0 11 20" fill="none" xmlns="http://www.w3.org/2000/svg">
<path d="M10.3918 0.00411556L7.80175 0C4.89191 0 3.01144 1.91065 3.01144 4.86788V7.11231H0.407261C0.182228 7.11231 0 7.29298 0 7.51584V10.7677C0 10.9906 0.182436 11.1711 0.407261 11.1711H3.01144V19.3767C3.01144 19.5995 3.19367 19.78 3.41871 19.78H6.81643C7.04146 19.78 7.22369 19.5993 7.22369 19.3767V11.1711H10.2686C10.4936 11.1711 10.6758 10.9906 10.6758 10.7677L10.6771 7.51584C10.6771 7.40883 10.6341 7.30635 10.5578 7.23063C10.4816 7.1549 10.3777 7.11231 10.2696 7.11231H7.22369V5.20968C7.22369 4.2952 7.44373 3.83097 8.64661 3.83097L10.3914 3.83035C10.6162 3.83035 10.7984 3.64968 10.7984 3.42703V0.40744C10.7984 0.184994 10.6164 0.00452712 10.3918 0.00411556Z" fill="black"/>
</svg>
