<svg width="10" height="17" viewBox="0 0 10 17" fill="none" xmlns="http://www.w3.org/2000/svg">
<path d="M8.81569 0.00349136L6.61847 0C4.14996 0 2.5547 1.62086 2.5547 4.12958V6.03359H0.345492C0.15459 6.03359 0 6.18686 0 6.37592V9.13462C0 9.32368 0.154766 9.47677 0.345492 9.47677H2.5547V16.4378C2.5547 16.6269 2.70929 16.78 2.9002 16.78H5.78259C5.97349 16.78 6.12808 16.6267 6.12808 16.4378V9.47677H8.71117C8.90207 9.47677 9.05666 9.32368 9.05666 9.13462L9.05772 6.37592C9.05772 6.28515 9.02123 6.19821 8.95654 6.13397C8.89184 6.06973 8.80371 6.03359 8.71205 6.03359H6.12808V4.41954C6.12808 3.64376 6.31475 3.24993 7.33519 3.24993L8.81534 3.24941C9.00607 3.24941 9.16066 3.09614 9.16066 2.90726V0.345645C9.16066 0.156937 9.00624 0.0038405 8.81569 0.00349136Z" fill="black"/>
</svg>
