<svg width="73" height="80" viewBox="0 0 73 80" fill="none" xmlns="http://www.w3.org/2000/svg">
<g opacity="0.4" filter="url(#filter0_d)">
<rect x="24" y="31.9961" width="25" height="14" fill="#F0F0F0"/>
</g>
<path d="M20 22.8265L30.8284 11.998H53.0002V56.998H20.0002L20 22.8265Z" fill="white" stroke="#DFDFDF" stroke-width="4"/>
<path d="M32.0002 9.99805V23.998H18.0002L32.0002 9.99805Z" fill="#DFDFDF"/>
<path d="M31.4633 36.3743C31.1286 36.0324 30.586 36.0324 30.2513 36.3743C29.9166 36.7163 29.9166 37.2708 30.2513 37.6128L36.5002 43.998L42.7492 37.6128C43.0839 37.2708 43.0839 36.7163 42.7492 36.3743C42.4145 36.0323 41.8719 36.0323 41.5372 36.3743L36.5002 41.5211L31.4633 36.3743Z" fill="#FF0000"/>
<path d="M35.3098 30.2363C35.3098 29.5524 35.8524 28.998 36.5216 28.998C37.1909 28.998 37.7334 29.5524 37.7334 30.2363V40.6374C37.7334 41.3212 37.1909 41.8756 36.5216 41.8756C35.8524 41.8756 35.3098 41.3212 35.3098 40.6374V30.2363Z" fill="#FF0000"/>
<rect opacity="0.5" x="31.0002" y="44.998" width="11" height="2" rx="1" fill="black"/>
<defs>
<filter id="filter0_d" x="0" y="17.9961" width="73" height="62" filterUnits="userSpaceOnUse" color-interpolation-filters="sRGB">
<feFlood flood-opacity="0" result="BackgroundImageFix"/>
<feColorMatrix in="SourceAlpha" type="matrix" values="0 0 0 0 0 0 0 0 0 0 0 0 0 0 0 0 0 0 127 0"/>
<feOffset dy="10"/>
<feGaussianBlur stdDeviation="12"/>
<feColorMatrix type="matrix" values="0 0 0 0 0 0 0 0 0 0 0 0 0 0 0 0 0 0 1 0"/>
<feBlend mode="normal" in2="BackgroundImageFix" result="effect1_dropShadow"/>
<feBlend mode="normal" in="SourceGraphic" in2="effect1_dropShadow" result="shape"/>
</filter>
</defs>
</svg>
