<svg width="95" height="50" viewBox="0 0 95 50" fill="none" xmlns="http://www.w3.org/2000/svg">
<path fill-rule="evenodd" clip-rule="evenodd" d="M0 45L45 0L72 27H67L45 5L5 45H0Z" fill="#1A1A18"/>
<path fill-rule="evenodd" clip-rule="evenodd" d="M32.9857 32.667C32.6299 32.5967 32.4165 32.5264 32.2742 32.456L32.5588 33.7216C32.7676 33.7388 32.9636 33.756 33.1479 33.7722C33.7172 33.8221 34.1747 33.8622 34.5509 33.8622C35.2624 33.8622 35.8316 33.7919 36.3297 33.581C36.8277 33.3701 37.0412 33.0185 37.0412 32.5264V32.3857C37.0412 32.2451 36.8989 32.0342 36.7566 31.8936C36.6143 31.7529 36.4008 31.6123 36.1874 31.4717C36.0513 31.4269 35.8574 31.3249 35.6241 31.2023L35.6241 31.2022L35.624 31.2022C35.4914 31.1324 35.346 31.056 35.1913 30.9795C34.9778 30.8389 34.8355 30.6983 34.8355 30.628C34.8355 30.5783 34.8711 30.5637 34.9423 30.5346C34.9717 30.5225 35.0073 30.508 35.049 30.4874C35.1201 30.4171 35.3336 30.4171 35.4759 30.4171C35.6893 30.4171 35.9739 30.4171 36.2585 30.4874C36.5431 30.5577 36.7566 30.628 36.8989 30.6983L36.6854 29.2921C36.6854 29.2921 36.472 29.2218 36.1874 29.2218C36.0348 29.2218 35.8823 29.2016 35.7408 29.1829C35.6182 29.1666 35.5038 29.1515 35.4047 29.1515H34.7644C34.124 29.1515 33.4837 29.2921 33.0568 29.503C32.5588 29.7843 32.3453 30.0655 32.3453 30.4171C32.3453 30.9092 32.9145 31.4717 34.124 32.1045C34.4086 32.2451 34.5509 32.3857 34.5509 32.5264C34.5509 32.5967 34.5509 32.667 34.4086 32.667C34.2663 32.7373 34.124 32.7373 33.9817 32.7373C33.6971 32.7373 33.3414 32.7373 32.9857 32.667ZM37.5393 29.3624H43.7293V30.5577H41.8794V34.0029H39.3892V30.5577H37.5393V29.3624ZM46.6464 29.3624H44.1562V34.0029H46.6464V29.3624ZM47.0732 29.3624H53.2632V30.5577H51.4133V34.0029H48.9231V30.5577H47.0732V29.3624ZM56.1092 29.3624H53.6189H53.5478V32.5967C53.5478 32.9482 53.7612 33.2295 54.0458 33.4404C54.4016 33.6513 54.7573 33.7919 55.2554 33.9325C55.7534 34.0029 56.2515 34.0732 56.8206 34.0732H56.9629C57.5321 34.0732 58.0302 34.0029 58.5282 33.9325C59.0263 33.8622 59.4532 33.7216 59.7378 33.5107C60.0224 33.2998 60.1647 33.0888 60.1647 32.8076V29.4327H57.6744V32.2451C57.6744 32.3857 57.6033 32.5264 57.461 32.667C57.3187 32.7373 57.1764 32.8076 56.9629 32.8076C56.7495 32.8076 56.536 32.7373 56.3938 32.5967C56.1803 32.456 56.1092 32.3154 56.1092 32.1045V29.3624ZM60.6627 29.3624H66.8527V30.5577H65.0028V34.0029H62.5126V30.5577H60.6627V29.3624ZM67.2796 29.3624H72.7581V30.628H69.6987V31.1202H72.26V32.3154H69.6987V32.8076H72.7581V34.0029H67.2796V29.3624ZM25.0171 29.3624H27.7919L29.7129 31.8936V29.3624H31.9185V34.0029H29.0726L27.1515 31.542V34.0029H25.0171V29.3624ZM24.7324 29.3624H22.2422V34.0029H24.7324V29.3624Z" fill="#FF0000"/>
<path fill-rule="evenodd" clip-rule="evenodd" d="M78.4901 42.543C78.7031 42.6839 79.1292 42.8248 79.8395 42.9656C80.5497 43.1065 81.1178 43.1769 81.615 43.1769C81.899 43.1769 82.1831 43.1769 82.3962 43.1065C82.6092 43.0361 82.6803 42.9656 82.6803 42.8248C82.6803 42.6135 82.4672 42.3317 81.9701 42.05C79.8395 40.8526 78.7031 39.796 78.7031 38.7395C78.7031 38.1056 79.1292 37.5421 79.9105 37.0491C80.7627 36.556 81.757 36.3447 83.0354 36.3447C83.3904 36.3447 83.7456 36.3447 84.1717 36.4151C84.475 36.4151 84.8819 36.4665 85.3481 36.5254L85.3482 36.5254C85.4278 36.5355 85.5092 36.5457 85.5921 36.556C86.1602 36.6264 86.4443 36.6264 86.5153 36.6264L86.8704 39.303C86.5863 39.1621 86.1602 39.0212 85.6631 38.9508C85.166 38.8804 84.6688 38.8099 84.2427 38.8099C83.8876 38.8099 83.6745 38.8804 83.4615 38.9508C83.2484 39.0212 83.1064 39.0917 83.1064 39.2325C83.1064 39.4439 83.3194 39.6552 83.7456 39.8665C84.5268 40.2891 85.166 40.6413 85.5211 40.8526C85.9472 41.0639 86.2313 41.3456 86.5863 41.6978C86.8704 41.9795 87.0125 42.3317 87.0835 42.6839V42.8952C87.0835 43.8109 86.6574 44.5152 85.8051 44.8674C84.9529 45.29 83.8876 45.4309 82.6092 45.4309C81.686 45.4309 80.4786 45.29 79.0582 45.0787L78.4901 42.543ZM73.4476 36.556H77.9218V45.3604H73.4476V36.556ZM72.8084 36.556H68.3342V45.3604H72.8084V36.556ZM55.1245 36.556H60.1669L63.6469 41.4161V36.556H67.624V45.3604H62.4395L58.9595 40.5708V45.3604H55.1245V36.556ZM49.3009 36.556H44.8266V45.3604H54.3433V43.1769H49.3009V36.556ZM34.1026 36.556H44.0454V38.9508H38.5058V39.9369H43.1221V42.1908H38.5058V43.1769H44.0454V45.4309H34.1026V36.556ZM28.0658 43.1769H26.4323V41.7682H27.9948C28.3499 41.7682 28.6339 41.8387 28.847 41.9795C29.0601 42.1908 29.1311 42.3317 29.1311 42.543C29.1311 42.6839 29.0601 42.8248 28.918 42.9656C28.705 43.1065 28.4919 43.1769 28.2078 43.1769H28.1368H28.0658ZM26.3613 38.5986V39.796H27.8527H27.9237H27.9948C28.2078 39.796 28.3499 39.7256 28.4919 39.6552C28.6339 39.5143 28.705 39.4439 28.705 39.2326C28.705 39.0917 28.6339 38.9508 28.4209 38.8099C28.2788 38.6691 27.9948 38.5986 27.7107 38.5986H26.3613ZM29.1311 36.556H22.2422V45.4309H29.4862C30.3385 45.4309 31.0487 45.29 31.6168 45.0787C32.185 44.8674 32.6111 44.5856 32.8952 44.2335C33.1793 43.8813 33.3213 43.5291 33.3213 43.1065C33.3213 42.7543 33.2503 42.4021 33.0372 42.1204C32.8242 41.7682 32.5401 41.4865 32.185 41.2752C31.8299 41.0639 31.3327 40.8526 30.8356 40.7821C31.2617 40.7117 31.6168 40.6413 31.9009 40.43C32.185 40.2186 32.4691 40.0073 32.6111 39.7256C32.7531 39.4439 32.8242 39.1621 32.8242 38.8804C32.8242 38.4578 32.6821 38.1056 32.398 37.7534C32.185 37.4012 31.7589 37.1195 31.1907 36.9082C30.6225 36.6969 29.9834 36.556 29.1311 36.556Z" fill="#FF0000"/>
<path fill-rule="evenodd" clip-rule="evenodd" d="M0 47.0612V50H95L91.0949 47L0 47.0612Z" fill="#1A1A18"/>
<path fill-rule="evenodd" clip-rule="evenodd" d="M23.2977 37.1019V37.5263H23.75V37.1019H23.2977ZM22.6191 39.2237V39.648L23.7501 39.2944V38.87L23.2223 38.7286L23.7501 38.5871V38.1628L22.6191 37.8092V38.2335L23.2223 38.375L22.6191 38.5164V38.9408L23.2223 39.0822L22.6191 39.2237ZM22.6191 41.5576V41.1333L23.2223 40.9918L22.6191 40.8504V40.426L23.2223 40.2846L22.6191 40.1431V39.7187L23.7501 40.0724V40.4967L23.2223 40.6382L23.7501 40.7796V41.204L22.6191 41.5576ZM22.6191 43.1136V43.5379L23.7501 43.1843V42.76L23.2223 42.6185L23.7501 42.4771V42.0527L22.6191 41.6991V42.1234L23.2223 42.2649L22.6191 42.4063V42.8307L23.2223 42.9721L22.6191 43.1136Z" fill="white"/>
<path fill-rule="evenodd" clip-rule="evenodd" d="M82.8939 42.7808H83.4629V43.1724H83.6763C83.8185 43.1724 83.9608 43.2377 84.1031 43.303C84.2453 43.3682 84.3164 43.4988 84.3164 43.6946V43.7599C84.3164 43.8251 84.3164 43.8904 84.2453 43.9557C84.2453 44.021 84.1742 44.0862 84.1031 44.1515L83.9608 44.2821C83.9252 44.2821 83.8897 44.2984 83.8541 44.3147C83.8185 44.331 83.783 44.3473 83.7474 44.3473C83.6051 44.3473 83.4629 44.2821 83.3918 44.2168V44.3473H82.8227V42.7808H82.8939ZM84.9567 43.1071H84.3877L84.7433 44.1515V44.2168C84.7433 44.2168 84.7433 44.2821 84.6722 44.2821C84.6722 44.3473 84.601 44.3473 84.5299 44.3473C84.4588 44.3473 84.3877 44.3473 84.3165 44.2821L84.3877 44.6737H84.6722H84.9567C85.0278 44.6737 85.0989 44.6737 85.1701 44.6084C85.1972 44.5835 85.2244 44.5681 85.2476 44.5549C85.2852 44.5336 85.3123 44.5182 85.3123 44.4779L85.4546 44.2168L85.9525 43.1071H85.3835L85.1701 43.8251L84.9567 43.1071ZM83.463 43.7599V43.4988C83.463 43.4988 83.5341 43.4988 83.5341 43.564C83.5649 43.564 83.5823 43.564 83.598 43.5693C83.6186 43.5763 83.636 43.5923 83.6764 43.6293C83.7179 43.6674 83.7351 43.6833 83.7423 43.7028C83.7475 43.7168 83.7475 43.7327 83.7475 43.7599C83.7203 43.7848 83.7035 43.8097 83.6892 43.831C83.666 43.8655 83.6492 43.8904 83.6052 43.8904L83.463 43.7599ZM82.6805 43.7599H82.1826V44.2168H82.6805V43.7599Z" fill="white"/>
</svg>
