<svg width="14" height="25" viewBox="0 0 14 25" fill="none" xmlns="http://www.w3.org/2000/svg">
<path d="M13.0227 22.4755L11.8958 18.2499C11.6701 17.4105 10.7785 16.9172 9.90797 17.1517L7.78071 17.724C7.72272 17.6278 7.66296 17.5278 7.6004 17.4222C7.02225 16.4583 6.23148 15.1381 5.71558 13.2011C5.19754 11.2595 5.22568 9.7168 5.24547 8.59024C5.24776 8.471 5.25027 8.35622 5.25085 8.24616L6.67789 7.8632L7.38017 7.6737C8.25199 7.43892 8.77762 6.56365 8.55403 5.72337L7.42734 1.49749C7.20332 0.657953 6.31129 0.164482 5.43948 0.399268L4.24686 0.723939L4.25563 0.756331C3.8162 0.933665 3.3897 1.18456 3.00037 1.49589C2.6345 1.79495 2.33342 2.10809 2.08087 2.45025C0.0332936 5.18107 -0.177177 8.63574 1.35282 14.3719C3.46799 22.3006 7.73255 24.256 7.91777 24.3382C8.32413 24.5121 8.74093 24.6314 9.19428 24.701C9.68187 24.7749 10.1757 24.7782 10.644 24.7115L10.652 24.7356L11.8485 24.427C12.7191 24.1917 13.2455 23.3165 13.0227 22.4755Z" fill="#FF0000"/>
</svg>
