<svg width="26" height="26" viewBox="0 0 26 26" fill="none" xmlns="http://www.w3.org/2000/svg">
<path fill-rule="evenodd" clip-rule="evenodd" d="M19.431 17.9029L25.6816 24.1535C26.1061 24.5727 26.1061 25.2624 25.6816 25.6816C25.2571 26.1061 24.5727 26.1061 24.1482 25.6816L17.8976 19.4363C16.0086 20.9857 13.5943 21.9143 10.9571 21.9143C4.90286 21.9143 0 17.0061 0 10.9571C0 4.90816 4.90286 0 10.9571 0C17.0061 0 21.9143 4.90816 21.9143 10.9571C21.9143 13.5943 20.9804 16.0139 19.431 17.9029ZM2.17551 10.9571C2.17551 15.7963 6.11265 19.7335 10.9571 19.7335C15.7963 19.7335 19.7388 15.7963 19.7388 10.9571C19.7388 6.11796 15.7963 2.17551 10.9571 2.17551C6.11265 2.17551 2.17551 6.11796 2.17551 10.9571Z" fill="#EBE4E0"/>
</svg>
