<svg width="20" height="11" viewBox="0 0 20 11" fill="none" xmlns="http://www.w3.org/2000/svg">
<path d="M17.2128 6.70178C17.8763 7.30496 18.5765 7.87247 19.1715 8.53648C19.4344 8.83156 19.6832 9.13605 19.8736 9.47849C20.1433 9.96529 19.899 10.501 19.4303 10.53L16.5166 10.5288C15.7652 10.5869 15.1657 10.3052 14.6616 9.82668C14.2582 9.44404 13.8846 9.0368 13.4967 8.64124C13.3377 8.47957 13.1713 8.32745 12.9724 8.2072C12.5747 7.96677 12.2294 8.04039 12.0021 8.4267C11.7706 8.81962 11.7181 9.25471 11.6954 9.69261C11.6642 10.3315 11.4568 10.4995 10.7676 10.5288C9.29473 10.5934 7.89691 10.3859 6.59838 9.69402C5.45355 9.08404 4.56579 8.22293 3.79308 7.24805C2.28861 5.34977 1.13649 3.26387 0.101007 1.11953C-0.132072 0.636412 0.0383836 0.377074 0.610798 0.367895C1.56132 0.350699 2.5117 0.351923 3.46334 0.366671C3.84966 0.371934 4.10541 0.578278 4.25458 0.918146C4.76883 2.09569 5.39809 3.21602 6.18794 4.25447C6.39829 4.53094 6.61277 4.80742 6.9182 5.00201C7.25609 5.21747 7.51335 5.14606 7.6723 4.79554C7.77317 4.57329 7.81733 4.3339 7.84007 4.09586C7.91537 3.27691 7.92529 2.45936 7.79321 1.64329C7.71213 1.13398 7.40407 0.804265 6.85833 0.707885C6.57985 0.658747 6.62131 0.562245 6.75615 0.414218C6.99035 0.158919 7.21061 0 7.6497 0H10.9426C11.461 0.0952781 11.5761 0.312148 11.6471 0.797901L11.6499 4.20411C11.6442 4.39216 11.7508 4.95018 12.1145 5.07465C12.4056 5.16326 12.5975 4.94639 12.7721 4.77449C13.5605 3.99526 14.1232 3.07436 14.6259 2.12078C14.849 1.70148 15.0408 1.26603 15.2267 0.830945C15.3644 0.508089 15.5806 0.349231 15.9711 0.356268L19.1403 0.358899C19.2343 0.358899 19.3294 0.360184 19.4204 0.374687C19.9544 0.45944 20.1007 0.673372 19.9358 1.159C19.6759 1.92092 19.1703 2.55587 18.6759 3.19375C18.1473 3.87477 17.5821 4.53247 17.058 5.21753C16.5764 5.84311 16.6147 6.15844 17.2128 6.70178Z" fill="black"/>
</svg>
