<svg width="25" height="14" viewBox="0 0 25 14" fill="none" xmlns="http://www.w3.org/2000/svg">
<path d="M21.5161 8.37722C22.3453 9.1312 23.2206 9.84059 23.9644 10.6706C24.293 11.0394 24.604 11.4201 24.842 11.8481C25.1792 12.4566 24.8738 13.1262 24.2879 13.1626L20.6458 13.161C19.7064 13.2336 18.9571 12.8814 18.327 12.2834C17.8227 11.8051 17.3558 11.296 16.8709 10.8016C16.6721 10.5995 16.4641 10.4093 16.2155 10.259C15.7183 9.95846 15.2868 10.0505 15.0026 10.5334C14.7133 11.0245 14.6476 11.5684 14.6192 12.1158C14.5802 12.9144 14.321 13.1244 13.4595 13.1609C11.6184 13.2418 9.87113 12.9824 8.24797 12.1175C6.81694 11.3551 5.70723 10.2787 4.74135 9.06007C2.86077 6.68722 1.42061 4.07984 0.126258 1.39942C-0.165091 0.795514 0.0479794 0.471342 0.763497 0.459868C1.95165 0.438374 3.13963 0.439904 4.32918 0.458339C4.81208 0.464917 5.13176 0.722847 5.31822 1.14768C5.96104 2.61961 6.74761 4.02002 7.73493 5.31809C7.99786 5.66368 8.26596 6.00927 8.64775 6.25251C9.07011 6.52184 9.39168 6.43257 9.59038 5.99443C9.71646 5.71661 9.77166 5.41738 9.80008 5.11982C9.89421 4.09613 9.90662 3.0742 9.74152 2.05411C9.64016 1.41747 9.25509 1.00533 8.57292 0.884857C8.22481 0.823434 8.27664 0.702806 8.44519 0.517773C8.73794 0.198649 9.01327 0 9.56213 0H13.6782C14.3262 0.119098 14.4701 0.390185 14.5588 0.997376L14.5624 5.25514C14.5553 5.4902 14.6885 6.18773 15.1431 6.34331C15.507 6.45407 15.7468 6.18298 15.9652 5.96812C16.9507 4.99407 17.654 3.84295 18.2824 2.65098C18.5613 2.12685 18.801 1.58254 19.0334 1.03868C19.2056 0.635111 19.4757 0.436539 19.9639 0.445335L23.9254 0.448624C24.0428 0.448624 24.1617 0.450231 24.2755 0.468359C24.943 0.5743 25.1259 0.841715 24.9198 1.44875C24.5949 2.40115 23.9628 3.19483 23.3448 3.99218C22.6842 4.84346 21.9776 5.66559 21.3225 6.52192C20.7205 7.30389 20.7683 7.69805 21.5161 8.37722Z" fill="white"/>
</svg>
