<svg width="33" height="12" viewBox="0 0 33 12" fill="none" xmlns="http://www.w3.org/2000/svg"><path d="M32.378 4.91h-1.646c-.035 0-.066.013-.1.019A5.96 5.96 0 0 0 24.735 0c-2.933 0-5.38 2.051-5.95 4.78-.735-.63-1.498-.956-2.28-.962-.814 0-1.596.33-2.357.974A5.963 5.963 0 0 0 8.271 0C5.101 0 2.5 2.4 2.223 5.46L.549 5.455A.547.547 0 0 0 0 6c0 .301.245.545.549.545h1.646C2.5 9.6 5.1 12 8.271 12a5.964 5.964 0 0 0 5.986-5.78c.764-.867 1.512-1.31 2.227-1.31.72.005 1.451.447 2.185 1.305C18.785 9.43 21.453 12 24.735 12a5.97 5.97 0 0 0 5.997-6h1.646a.547.547 0 0 0 .549-.545.547.547 0 0 0-.549-.546z" fill="#F00"/></svg>