<svg width="62" height="54" viewBox="0 0 62 54" fill="none" xmlns="http://www.w3.org/2000/svg"><path opacity=".2" d="M17.71 28.515c2.532.886 4.495 2.343 5.889 4.369 1.392 2.026 2.09 4.496 2.09 7.408 0 3.8-1.204 6.902-3.61 9.309-2.407 2.406-5.383 3.609-8.929 3.609-3.672 0-6.712-1.203-9.118-3.61-2.406-2.532-3.61-5.635-3.61-9.308 0-1.773.19-3.546.57-5.319.507-1.9 1.457-4.622 2.85-8.168L12.77.21h11.968L17.71 28.515zm35.903 0c2.533.886 4.496 2.343 5.889 4.369 1.393 2.026 2.09 4.496 2.09 7.408 0 3.8-1.204 6.902-3.61 9.309-2.406 2.406-5.382 3.609-8.928 3.609-3.673 0-6.712-1.203-9.119-3.61-2.406-2.532-3.609-5.635-3.609-9.308 0-1.773.19-3.546.57-5.319.507-1.9 1.456-4.622 2.85-8.168L48.673.21h11.968l-7.03 28.305z" fill="#000"/></svg>