<svg width="73" height="80" viewBox="0 0 73 80" fill="none" xmlns="http://www.w3.org/2000/svg"><path fill="#F0F0F0" d="M24 31.996h25v14H24z" opacity=".4" filter="url(#a)"/><path d="M20 22.826l10.828-10.828H53v45H20V22.827z" fill="#fff" stroke="#DFDFDF" stroke-width="4"/><path d="M32 9.998v14H18l14-14z" fill="#DFDFDF"/><path d="M31.463 36.374a.844.844 0 0 0-1.212 0 .89.89 0 0 0 0 1.239l6.25 6.385 6.248-6.385a.89.89 0 0 0 0-1.239.844.844 0 0 0-1.212 0L36.5 41.521l-5.037-5.147z" fill="#F00"/><path d="M35.31 30.236c0-.684.542-1.238 1.212-1.238.669 0 1.211.554 1.211 1.238v10.401c0 .684-.542 1.239-1.211 1.239-.67 0-1.212-.555-1.212-1.239v-10.4z" fill="#F00"/><rect opacity=".5" x="31" y="44.998" width="11" height="2" rx="1" fill="#000"/><defs><filter id="a" x="0" y="17.996" width="73" height="62" filterUnits="userSpaceOnUse" color-interpolation-filters="sRGB"><feFlood flood-opacity="0" result="BackgroundImageFix"/><feColorMatrix in="SourceAlpha" values="0 0 0 0 0 0 0 0 0 0 0 0 0 0 0 0 0 0 127 0"/><feOffset dy="10"/><feGaussianBlur stdDeviation="12"/><feColorMatrix values="0 0 0 0 0 0 0 0 0 0 0 0 0 0 0 0 0 0 1 0"/><feBlend in2="BackgroundImageFix" result="effect1_dropShadow"/><feBlend in="SourceGraphic" in2="effect1_dropShadow" result="shape"/></filter></defs></svg>