<svg width="95" height="50" viewBox="0 0 95 50" fill="none" xmlns="http://www.w3.org/2000/svg"><path fill-rule="evenodd" clip-rule="evenodd" d="M0 45L45 0l27 27h-5L45 5 5 45H0z" fill="#1A1A18"/><path fill-rule="evenodd" clip-rule="evenodd" d="M32.986 32.667c-.356-.07-.57-.14-.712-.211l.285 1.266.589.05c.57.05 1.027.09 1.403.09.711 0 1.28-.07 1.779-.281.498-.21.711-.563.711-1.055v-.14c0-.14-.142-.352-.284-.492-.143-.141-.356-.282-.57-.422a4.487 4.487 0 0 1-.563-.27c-.133-.07-.278-.146-.433-.223-.213-.14-.355-.28-.355-.351 0-.05.035-.064.106-.093.03-.012.065-.027.107-.048.071-.07.285-.07.427-.07.213 0 .498 0 .782.07.285.07.499.141.64.211l-.213-1.406s-.213-.07-.498-.07a3.2 3.2 0 0 1-.446-.04 2.7 2.7 0 0 0-.336-.03h-.64c-.641 0-1.281.14-1.708.351-.498.281-.712.563-.712.914 0 .492.57 1.055 1.779 1.688.285.14.427.28.427.421 0 .07 0 .141-.142.141-.143.07-.285.07-.427.07-.285 0-.64 0-.996-.07zm4.553-3.305h6.19v1.196h-1.85v3.445h-2.49v-3.445h-1.85v-1.196zm9.107 0h-2.49v4.64h2.49v-4.64zm.427 0h6.19v1.196h-1.85v3.445h-2.49v-3.445h-1.85v-1.196zm9.036 0h-2.561v3.235c0 .351.213.633.498.843.356.211.711.352 1.21.492.497.07.995.141 1.565.141h.142c.57 0 1.067-.07 1.565-.14s.925-.211 1.21-.422c.284-.211.427-.422.427-.703v-3.375h-2.49v2.812c0 .14-.072.281-.214.422-.142.07-.285.14-.498.14a.813.813 0 0 1-.57-.21c-.213-.141-.284-.282-.284-.492v-2.743zm4.554 0h6.19v1.196h-1.85v3.445h-2.49v-3.445h-1.85v-1.196zm6.617 0h5.478v1.266h-3.06v.492h2.562v1.195h-2.561v.493h3.06v1.195h-5.48v-4.64zm-42.263 0h2.775l1.92 2.532v-2.532h2.207v4.64h-2.846l-1.922-2.46v2.46h-2.134v-4.64zm-.285 0h-2.49v4.64h2.49v-4.64zM78.49 42.543c.213.14.64.282 1.35.423.71.14 1.278.21 1.775.21.284 0 .568 0 .781-.07.213-.07.284-.14.284-.281 0-.212-.213-.493-.71-.775-2.13-1.197-3.267-2.254-3.267-3.31 0-.634.426-1.198 1.207-1.69.853-.494 1.847-.705 3.125-.705.355 0 .71 0 1.137.07.303 0 .71.052 1.176.11l.244.031c.568.07.852.07.923.07l.355 2.677a4.115 4.115 0 0 0-1.207-.352c-.497-.07-.994-.141-1.42-.141-.355 0-.569.07-.781.14-.214.071-.356.142-.356.282 0 .212.213.423.64.635.78.422 1.42.774 1.775.986.426.21.71.493 1.065.845.284.282.427.634.498.986v.211c0 .916-.427 1.62-1.279 1.972-.852.423-1.917.564-3.196.564-.923 0-2.13-.141-3.55-.352l-.569-2.536zm-5.042-5.987h4.474v8.804h-4.474v-8.804zm-.64 0h-4.474v8.804h4.474v-8.804zm-17.684 0h5.043l3.48 4.86v-4.86h3.977v8.804H62.44l-3.48-4.79v4.79h-3.836v-8.804zm-5.823 0h-4.474v8.804h9.516v-2.183h-5.042v-6.621zm-15.198 0h9.942v2.395h-5.54v.986h4.617v2.254h-4.616v.986h5.54v2.254h-9.943v-8.875zm-6.037 6.62h-1.634v-1.408h1.563c.355 0 .639.07.852.212.213.21.284.352.284.563 0 .14-.07.282-.213.423-.213.14-.426.21-.71.21h-.142zM26.36 38.6v1.197h1.635c.213 0 .355-.07.497-.14.142-.142.213-.212.213-.423 0-.141-.071-.282-.284-.423-.142-.14-.426-.211-.71-.211h-1.35zm2.77-2.043h-6.889v8.875h7.244c.852 0 1.563-.141 2.13-.352.569-.212.995-.493 1.28-.846.283-.352.425-.704.425-1.127 0-.352-.07-.704-.284-.986a2.437 2.437 0 0 0-.852-.845 3.828 3.828 0 0 0-1.35-.493c.427-.07.782-.14 1.066-.352.284-.211.568-.423.71-.704.142-.282.213-.564.213-.846 0-.422-.142-.774-.426-1.127-.213-.352-.64-.633-1.207-.845-.569-.211-1.208-.352-2.06-.352z" fill="#F00"/><path fill-rule="evenodd" clip-rule="evenodd" d="M0 47.061V50h95l-3.905-3L0 47.061z" fill="#1A1A18"/><path fill-rule="evenodd" clip-rule="evenodd" d="M23.298 37.102v.424h.452v-.424h-.452zm-.679 2.122v.424l1.131-.354v-.424l-.528-.141.528-.142v-.424l-1.13-.354v.425l.602.141-.603.141v.425l.603.141-.603.142zm0 2.334v-.425l.603-.141-.603-.142v-.424l.603-.141-.603-.142v-.424l1.131.353v.425l-.528.141.528.142v.424l-1.13.354zm0 1.556v.424l1.131-.354v-.424l-.528-.142.528-.14v-.425l-1.13-.354v.424l.602.142-.603.141v.425l.603.141-.603.142zm60.275-.334h.569v.392h.213c.142 0 .285.066.427.131.142.065.213.196.213.392v.065c0 .065 0 .13-.07.196 0 .065-.072.13-.143.195l-.142.131a.26.26 0 0 0-.107.033.269.269 0 0 1-.107.032.57.57 0 0 1-.355-.13v.13h-.57v-1.566h.072zm2.063.327h-.57l.356 1.044v.066s0 .065-.07.065c0 .065-.072.065-.143.065s-.142 0-.213-.065l.07.392h.57c.07 0 .142 0 .213-.066a.4.4 0 0 1 .078-.053c.037-.021.064-.037.064-.077l.143-.261.498-1.11h-.57l-.213.718-.213-.718zm-1.494.653v-.261s.071 0 .071.065c.03 0 .048 0 .064.005.02.007.038.023.078.06.042.038.06.054.066.074.005.014.005.03.005.057a.365.365 0 0 0-.058.071c-.023.034-.04.06-.084.06l-.142-.131zm-.782 0h-.498v.457h.497v-.457z" fill="#fff"/></svg>