<svg width="14" height="25" viewBox="0 0 14 25" fill="none" xmlns="http://www.w3.org/2000/svg"><path d="M13.023 22.476l-1.127-4.226c-.226-.84-1.118-1.333-1.988-1.098l-2.127.572a45.857 45.857 0 0 1-.18-.302c-.579-.964-1.37-2.284-1.885-4.22-.518-1.943-.49-3.485-.47-4.612l.005-.344 1.427-.383.702-.19c.872-.234 1.398-1.11 1.174-1.95L7.427 1.497C7.203.658 6.311.164 5.44.4L4.247.724l.009.032c-.44.178-.866.429-1.256.74a5.317 5.317 0 0 0-.92.954C.034 5.181-.176 8.636 1.354 14.372c2.115 7.929 6.38 9.884 6.565 9.966.406.174.823.293 1.276.363.488.074.982.077 1.45.01l.008.025 1.197-.309c.87-.235 1.396-1.11 1.174-1.951z" fill="#F00"/></svg>