<svg width="26" height="26" viewBox="0 0 26 26" fill="none" xmlns="http://www.w3.org/2000/svg"><path fill-rule="evenodd" clip-rule="evenodd" d="M19.431 17.903l6.25 6.25c.425.42.425 1.11 0 1.529a1.082 1.082 0 0 1-1.533 0l-6.25-6.246a10.9 10.9 0 0 1-6.94 2.478C4.902 21.914 0 17.006 0 10.957S4.903 0 10.957 0c6.05 0 10.957 4.908 10.957 10.957 0 2.637-.934 5.057-2.483 6.946zM2.176 10.957c0 4.84 3.937 8.776 8.781 8.776 4.84 0 8.782-3.937 8.782-8.776s-3.943-8.781-8.782-8.781c-4.844 0-8.781 3.942-8.781 8.781z" fill="#F00"/></svg>