<svg width="20" height="11" viewBox="0 0 20 11" fill="none" xmlns="http://www.w3.org/2000/svg"><path d="M17.213 6.702c.663.603 1.363 1.17 1.959 1.834.262.296.511.6.702.942.27.487.025 1.023-.444 1.052l-2.913-.001c-.752.058-1.351-.224-1.855-.702-.404-.383-.777-.79-1.165-1.186a2.703 2.703 0 0 0-.525-.434c-.397-.24-.743-.167-.97.22-.231.393-.284.828-.307 1.266-.03.639-.238.806-.927.836-1.473.064-2.871-.143-4.17-.835-1.144-.61-2.032-1.471-2.805-2.446C2.29 5.35 1.136 3.264.101 1.12-.132.636.038.377.611.368A82.163 82.163 0 0 1 3.463.367c.387.005.642.211.792.551a16.14 16.14 0 0 0 1.933 3.336c.21.277.425.553.73.748.338.215.595.144.754-.206.101-.223.145-.462.168-.7.075-.82.085-1.637-.047-2.453-.08-.509-.389-.839-.935-.935-.278-.05-.237-.146-.102-.294C6.99.16 7.211 0 7.65 0h3.293c.518.095.633.312.704.798l.003 3.406c-.006.188.1.746.464.87.292.09.483-.128.658-.3.788-.779 1.351-1.7 1.854-2.653.223-.42.415-.855.6-1.29.138-.323.355-.482.745-.475l3.17.003c.093 0 .188.001.28.016.533.084.68.298.515.784-.26.762-.766 1.397-1.26 2.035-.529.68-1.094 1.338-1.618 2.024-.482.625-.443.94.155 1.484z" fill="#000"/></svg>