<svg width="25" height="14" viewBox="0 0 25 14" fill="none" xmlns="http://www.w3.org/2000/svg"><path d="M21.516 8.377c.83.754 1.705 1.464 2.448 2.294.329.368.64.75.878 1.177.337.609.032 1.278-.554 1.315l-3.642-.002c-.94.073-1.689-.28-2.319-.878-.504-.478-.971-.987-1.456-1.481a3.381 3.381 0 0 0-.655-.543c-.498-.3-.93-.209-1.213.274-.29.492-.355 1.035-.384 1.583-.039.798-.298 1.008-1.16 1.045-1.84.08-3.588-.179-5.211-1.043-1.431-.763-2.54-1.84-3.507-3.058C2.861 6.687 1.421 4.08.126 1.4-.165.795.048.47.763.46 1.952.438 3.14.44 4.33.458c.483.007.803.265.99.69.642 1.472 1.429 2.872 2.416 4.17.263.346.531.691.913.935.422.269.744.18.942-.259.126-.277.182-.577.21-.874.094-1.024.107-2.046-.058-3.066-.102-.637-.487-1.049-1.17-1.17-.347-.06-.295-.181-.127-.366C8.738.198 9.013 0 9.562 0h4.116c.648.12.792.39.88.997l.004 4.258c-.007.235.127.933.581 1.088.364.111.604-.16.822-.375.986-.974 1.689-2.125 2.317-3.317a20.3 20.3 0 0 0 .751-1.612c.173-.404.443-.602.93-.594l3.962.004c.118 0 .237.001.35.02.668.105.85.373.645.98-.325.952-.957 1.746-1.575 2.543-.66.851-1.367 1.674-2.022 2.53-.602.782-.555 1.176.193 1.855z" fill="#fff"/></svg>